<svg width="500" height="500" viewBox="0 0 500 500" fill="none" xmlns="http://www.w3.org/2000/svg"><circle cx="251" cy="250" r="230" stroke="#292727" stroke-width="14"/><circle cx="250.056" cy="249" r="87" stroke="#292727" stroke-width="8"/><path d="M338.056 186L199.056 45.795C278.167 27.2494 335.838 59.1481 335.838 59.1481L338.056 186Z" fill="#292727"/><path d="M357.349 269.553L359.935 70.5134C429.179 114.528 446.998 178.603 446.998 178.603L357.349 269.553Z" fill="#292727"/><path d="M313.618 341.857L454.081 200.813C473.125 280.621 441.292 339.015 441.292 339.015L313.618 341.857Z" fill="#292727"/><path d="M231.776 358.279L430.814 355.637C388.633 426.013 325.048 445.508 325.048 445.508L231.776 358.279Z" fill="#292727"/><path d="M158.863 314.583L301.362 453.57C221.756 473.444 163.034 442.22 163.034 442.22L158.863 314.583Z" fill="#292727"/><path d="M140.083 232.13L143.123 431.163C72.6625 389.124 53.0404 325.577 53.0404 325.577L140.083 232.13Z" fill="#292727"/><path d="M183.937 160.729L45.3273 303.596C25.2428 224.043 56.3109 165.238 56.3109 165.238L183.937 160.729Z" fill="#292727"/><path d="M268.208 142.383L69.1567 140.958C112.767 71.4579 176.738 53.2663 176.738 53.2663L268.208 142.383Z" fill="#292727"/></svg>
