<svg width="500" height="500" viewBox="0 0 500 500" fill="none" xmlns="http://www.w3.org/2000/svg">
<rect width="500" height="500" rx="32" fill="#292727"/>
<circle cx="251" cy="250" r="230" stroke="white" stroke-width="14"/>
<circle cx="252.5" cy="248.5" r="84.5" stroke="white" stroke-width="8"/>
<path d="M338 187.684L203 51.3198C279.835 33.2824 335.846 64.307 335.846 64.307L338 187.684Z" fill="white"/>
<path d="M356.516 268.445L359.021 75.5151C426.141 118.178 443.412 180.287 443.412 180.287L356.516 268.445Z" fill="white"/>
<path d="M314.127 338.529L450.279 201.814C468.738 279.173 437.882 335.774 437.882 335.774L314.127 338.529Z" fill="white"/>
<path d="M234.796 354.447L427.726 351.886C386.84 420.103 325.206 438.999 325.206 438.999L234.796 354.447Z" fill="white"/>
<path d="M164.121 312.092L302.247 446.813C225.084 466.077 168.164 435.812 168.164 435.812L164.121 312.092Z" fill="white"/>
<path d="M145.918 232.171L148.865 425.095C80.5671 384.346 61.5471 322.749 61.5471 322.749L145.918 232.171Z" fill="white"/>
<path d="M188.426 162.961L54.0711 301.442C34.6031 224.331 64.7177 167.332 64.7177 167.332L188.426 162.961Z" fill="white"/>
<path d="M270.11 145.179L77.1684 143.797C119.44 76.4306 181.447 58.7975 181.447 58.7975L270.11 145.179Z" fill="white"/>
</svg>
