<svg width="500" height="500" viewBox="0 0 500 500" fill="none" xmlns="http://www.w3.org/2000/svg">
<g clip-path="url(#clip0_1844_42)">
<rect width="500" height="500" rx="250" fill="#242222"/>
<path d="M214.969 240H202.625V204.406H191.469V194.312H226.094V204.406H214.969V240ZM244.125 191.375V198.281C244.125 200.906 244.062 203.115 243.938 204.906C243.833 206.677 243.729 208.031 243.625 208.969H244.188C244.958 207.74 245.833 206.76 246.812 206.031C247.792 205.302 248.875 204.781 250.062 204.469C251.25 204.135 252.542 203.969 253.938 203.969C256.271 203.969 258.375 204.417 260.25 205.312C262.146 206.208 263.656 207.615 264.781 209.531C265.906 211.427 266.469 213.906 266.469 216.969V240H254.188V220.688C254.188 218.333 253.844 216.562 253.156 215.375C252.469 214.167 251.406 213.562 249.969 213.562C248.49 213.562 247.323 213.99 246.469 214.844C245.615 215.677 245.01 216.906 244.656 218.531C244.302 220.135 244.125 222.104 244.125 224.438V240H231.906V191.375H244.125ZM290.719 203.969C294.156 203.969 297.125 204.573 299.625 205.781C302.125 206.969 304.052 208.76 305.406 211.156C306.76 213.552 307.438 216.552 307.438 220.156V225.594H285.594C285.698 227.448 286.385 228.969 287.656 230.156C288.948 231.344 290.844 231.938 293.344 231.938C295.552 231.938 297.573 231.719 299.406 231.281C301.26 230.844 303.167 230.167 305.125 229.25V238.031C303.417 238.927 301.552 239.583 299.531 240C297.51 240.417 294.958 240.625 291.875 240.625C288.312 240.625 285.125 239.99 282.312 238.719C279.5 237.448 277.281 235.479 275.656 232.812C274.052 230.146 273.25 226.719 273.25 222.531C273.25 218.281 273.979 214.792 275.438 212.062C276.896 209.312 278.938 207.281 281.562 205.969C284.188 204.635 287.24 203.969 290.719 203.969ZM291.156 212.281C289.719 212.281 288.51 212.74 287.531 213.656C286.573 214.552 286.01 215.969 285.844 217.906H296.344C296.323 216.865 296.115 215.917 295.719 215.062C295.323 214.208 294.74 213.531 293.969 213.031C293.219 212.531 292.281 212.281 291.156 212.281ZM94.3125 286.188C94.3125 291.5 93.3229 295.917 91.3438 299.438C89.3646 302.958 86.5729 305.604 82.9688 307.375C79.3854 309.125 75.1667 310 70.3125 310H55.5312V264.312H71.3438C76.2604 264.312 80.4271 265.156 83.8438 266.844C87.2604 268.531 89.8542 271 91.625 274.25C93.4167 277.5 94.3125 281.479 94.3125 286.188ZM81.5 286.625C81.5 283.854 81.125 281.562 80.375 279.75C79.6458 277.917 78.5417 276.552 77.0625 275.656C75.5833 274.74 73.7188 274.281 71.4688 274.281H67.875V299.875H70.625C74.375 299.875 77.125 298.792 78.875 296.625C80.625 294.438 81.5 291.104 81.5 286.625ZM119.094 273.969C123.573 273.969 127.073 275.083 129.594 277.312C132.115 279.521 133.375 282.677 133.375 286.781V310H124.906L122.562 305.312H122.312C121.312 306.562 120.281 307.583 119.219 308.375C118.177 309.146 116.979 309.708 115.625 310.062C114.271 310.438 112.615 310.625 110.656 310.625C108.615 310.625 106.781 310.208 105.156 309.375C103.531 308.542 102.25 307.281 101.312 305.594C100.375 303.906 99.9062 301.771 99.9062 299.188C99.9062 295.396 101.219 292.583 103.844 290.75C106.469 288.917 110.271 287.885 115.25 287.656L121.156 287.469V286.969C121.156 285.385 120.76 284.26 119.969 283.594C119.198 282.927 118.156 282.594 116.844 282.594C115.448 282.594 113.885 282.844 112.156 283.344C110.448 283.823 108.729 284.448 107 285.219L103.469 277.156C105.51 276.115 107.823 275.323 110.406 274.781C112.99 274.24 115.885 273.969 119.094 273.969ZM121.219 294.188L118.406 294.312C116.156 294.396 114.573 294.792 113.656 295.5C112.76 296.188 112.312 297.177 112.312 298.469C112.312 299.677 112.635 300.573 113.281 301.156C113.927 301.719 114.781 302 115.844 302C117.323 302 118.583 301.531 119.625 300.594C120.688 299.656 121.219 298.438 121.219 296.938V294.188ZM163.062 273.969C163.729 273.969 164.427 274.021 165.156 274.125C165.885 274.208 166.427 274.281 166.781 274.344L165.688 285.875C165.292 285.771 164.781 285.688 164.156 285.625C163.531 285.542 162.656 285.5 161.531 285.5C160.76 285.5 159.938 285.573 159.062 285.719C158.188 285.865 157.354 286.177 156.562 286.656C155.792 287.115 155.156 287.823 154.656 288.781C154.156 289.719 153.906 290.99 153.906 292.594V310H141.688V274.594H150.781L152.688 280.25H153.281C153.927 279.083 154.75 278.031 155.75 277.094C156.771 276.135 157.906 275.375 159.156 274.812C160.427 274.25 161.729 273.969 163.062 273.969ZM184.031 261.375V280.5C184.031 281.938 183.969 283.542 183.844 285.312C183.74 287.062 183.573 288.656 183.344 290.094H183.594C184.073 289.365 184.677 288.448 185.406 287.344C186.135 286.24 186.792 285.323 187.375 284.594L195.312 274.594H208.938L196.656 289.656L209.719 310H195.75L188 297.312L184.031 300.344V310H171.75V261.375H184.031ZM235.312 273.969C235.979 273.969 236.677 274.021 237.406 274.125C238.135 274.208 238.677 274.281 239.031 274.344L237.938 285.875C237.542 285.771 237.031 285.688 236.406 285.625C235.781 285.542 234.906 285.5 233.781 285.5C233.01 285.5 232.188 285.573 231.312 285.719C230.438 285.865 229.604 286.177 228.812 286.656C228.042 287.115 227.406 287.823 226.906 288.781C226.406 289.719 226.156 290.99 226.156 292.594V310H213.938V274.594H223.031L224.938 280.25H225.531C226.177 279.083 227 278.031 228 277.094C229.021 276.135 230.156 275.375 231.406 274.812C232.677 274.25 233.979 273.969 235.312 273.969ZM277.812 292.219C277.812 295.177 277.406 297.802 276.594 300.094C275.781 302.385 274.604 304.312 273.062 305.875C271.521 307.438 269.656 308.625 267.469 309.438C265.281 310.229 262.812 310.625 260.062 310.625C257.5 310.625 255.146 310.229 253 309.438C250.875 308.625 249.021 307.438 247.438 305.875C245.854 304.312 244.625 302.385 243.75 300.094C242.896 297.802 242.469 295.177 242.469 292.219C242.469 288.302 243.177 284.99 244.594 282.281C246.031 279.573 248.073 277.51 250.719 276.094C253.385 274.677 256.562 273.969 260.25 273.969C263.646 273.969 266.667 274.677 269.312 276.094C271.958 277.51 274.031 279.573 275.531 282.281C277.052 284.99 277.812 288.302 277.812 292.219ZM254.875 292.219C254.875 294.24 255.052 295.948 255.406 297.344C255.76 298.719 256.323 299.771 257.094 300.5C257.885 301.208 258.917 301.562 260.188 301.562C261.458 301.562 262.469 301.208 263.219 300.5C263.969 299.771 264.51 298.719 264.844 297.344C265.198 295.948 265.375 294.24 265.375 292.219C265.375 290.198 265.198 288.51 264.844 287.156C264.51 285.802 263.958 284.781 263.188 284.094C262.438 283.406 261.417 283.062 260.125 283.062C258.271 283.062 256.927 283.833 256.094 285.375C255.281 286.917 254.875 289.198 254.875 292.219ZM318.625 292.219C318.625 295.177 318.219 297.802 317.406 300.094C316.594 302.385 315.417 304.312 313.875 305.875C312.333 307.438 310.469 308.625 308.281 309.438C306.094 310.229 303.625 310.625 300.875 310.625C298.312 310.625 295.958 310.229 293.812 309.438C291.688 308.625 289.833 307.438 288.25 305.875C286.667 304.312 285.438 302.385 284.562 300.094C283.708 297.802 283.281 295.177 283.281 292.219C283.281 288.302 283.99 284.99 285.406 282.281C286.844 279.573 288.885 277.51 291.531 276.094C294.198 274.677 297.375 273.969 301.062 273.969C304.458 273.969 307.479 274.677 310.125 276.094C312.771 277.51 314.844 279.573 316.344 282.281C317.865 284.99 318.625 288.302 318.625 292.219ZM295.688 292.219C295.688 294.24 295.865 295.948 296.219 297.344C296.573 298.719 297.135 299.771 297.906 300.5C298.698 301.208 299.729 301.562 301 301.562C302.271 301.562 303.281 301.208 304.031 300.5C304.781 299.771 305.323 298.719 305.656 297.344C306.01 295.948 306.188 294.24 306.188 292.219C306.188 290.198 306.01 288.51 305.656 287.156C305.323 285.802 304.771 284.781 304 284.094C303.25 283.406 302.229 283.062 300.938 283.062C299.083 283.062 297.74 283.833 296.906 285.375C296.094 286.917 295.688 289.198 295.688 292.219ZM368.844 273.969C372.885 273.969 375.969 275 378.094 277.062C380.24 279.125 381.312 282.427 381.312 286.969V310H369.094V290.75C369.094 288.062 368.729 286.198 368 285.156C367.292 284.094 366.229 283.562 364.812 283.562C362.833 283.562 361.458 284.427 360.688 286.156C359.938 287.885 359.562 290.333 359.562 293.5V310H347.312V290.75C347.312 289.042 347.156 287.667 346.844 286.625C346.552 285.562 346.104 284.792 345.5 284.312C344.896 283.812 344.135 283.562 343.219 283.562C341.823 283.562 340.729 283.99 339.938 284.844C339.167 285.677 338.625 286.906 338.312 288.531C338 290.156 337.844 292.146 337.844 294.5V310H325.625V274.594H334.844L336.625 278.969H336.969C337.594 278.01 338.396 277.156 339.375 276.406C340.375 275.656 341.552 275.062 342.906 274.625C344.281 274.188 345.844 273.969 347.594 273.969C350.198 273.969 352.344 274.406 354.031 275.281C355.719 276.156 357.094 277.365 358.156 278.906H358.531C359.656 277.323 361.104 276.104 362.875 275.25C364.646 274.396 366.635 273.969 368.844 273.969ZM432.844 273.969C436.885 273.969 439.969 275 442.094 277.062C444.24 279.125 445.312 282.427 445.312 286.969V310H433.094V290.75C433.094 288.062 432.729 286.198 432 285.156C431.292 284.094 430.229 283.562 428.812 283.562C426.833 283.562 425.458 284.427 424.688 286.156C423.938 287.885 423.562 290.333 423.562 293.5V310H411.312V290.75C411.312 289.042 411.156 287.667 410.844 286.625C410.552 285.562 410.104 284.792 409.5 284.312C408.896 283.812 408.135 283.562 407.219 283.562C405.823 283.562 404.729 283.99 403.938 284.844C403.167 285.677 402.625 286.906 402.312 288.531C402 290.156 401.844 292.146 401.844 294.5V310H389.625V274.594H398.844L400.625 278.969H400.969C401.594 278.01 402.396 277.156 403.375 276.406C404.375 275.656 405.552 275.062 406.906 274.625C408.281 274.188 409.844 273.969 411.594 273.969C414.198 273.969 416.344 274.406 418.031 275.281C419.719 276.156 421.094 277.365 422.156 278.906H422.531C423.656 277.323 425.104 276.104 426.875 275.25C428.646 274.396 430.635 273.969 432.844 273.969Z" fill="white"/>
</g>
<defs>
<clipPath id="clip0_1844_42">
<rect width="500" height="500" rx="250" fill="white"/>
</clipPath>
</defs>
</svg>
