<svg width="75" height="44" viewBox="0 0 75 44" fill="none" xmlns="http://www.w3.org/2000/svg">
<path d="M33.1037 0V27.6126C33.1037 30.814 32.4569 33.6553 31.1635 36.1364C29.9105 38.6176 28.0512 40.5584 25.5856 41.9591C23.1604 43.3197 20.129 44 16.4912 44C12.9747 44 9.98364 43.3197 7.51805 41.9591C5.09287 40.5584 3.23357 38.6776 1.94014 36.3165C0.687133 33.9154 0.0404196 31.1742 0 28.0928H9.21567C9.25609 29.6135 9.49861 30.9741 9.94322 32.1746C10.4283 33.3352 11.1962 34.2356 12.2471 34.8759C13.3385 35.5161 14.7532 35.8363 16.4912 35.8363C18.3101 35.8363 19.745 35.5161 20.7959 34.8759C21.8872 34.1955 22.6552 33.2551 23.0998 32.0546C23.5848 30.854 23.8274 29.4534 23.8274 27.8527V0H33.1037Z" fill="black"/>
<path d="M57.7812 29.0532H50.9301V43.0996H41.7145V0H57.7812C61.3382 0 64.3899 0.540246 66.9363 1.62074C69.5231 2.70123 71.5037 4.30196 72.878 6.42292C74.2927 8.54389 75 11.1851 75 14.3465C75 17.4679 74.2927 20.1292 72.878 22.3302C71.5037 24.5312 69.5231 26.2119 66.9363 27.3724C64.3899 28.493 61.3382 29.0532 57.7812 29.0532ZM57.7206 7.68349H50.9301V21.3697H57.7206C60.3075 21.3697 62.3082 20.7494 63.7229 19.5089C65.1376 18.2283 65.845 16.5275 65.845 14.4066C65.845 12.2856 65.1376 10.6448 63.7229 9.48431C62.3082 8.28377 60.3075 7.68349 57.7206 7.68349Z" fill="currentColor"/>
</svg>
